<svg width="401" height="211" viewBox="0 0 401 211" fill="none" xmlns="http://www.w3.org/2000/svg">
<path fill-rule="evenodd" clip-rule="evenodd" d="M160.757 13.8069C182.986 25.1339 182.889 24.7064 169.22 51.0624C157.286 74.0816 154.036 75.0192 135.236 60.8382C116.554 46.7467 94.9468 48.2083 73.5333 65.0091C47.7984 85.1879 47.7984 126.552 73.5333 146.731C111.43 176.458 134.095 164.345 177.565 91.1513C199.138 54.8265 220.15 28.8911 237.166 17.5987C306.35 -28.3019 401.069 22.3211 401 105.167C400.952 165.835 356.749 209.205 294.921 209.253C263.123 209.281 221.257 192.639 221.257 179.974C221.257 175.431 236.44 148.165 246.895 133.95C248.084 132.329 252.917 136.169 257.626 142.477C272.968 163.001 306.392 164.435 328.455 145.518C355.034 122.719 355.352 89.2968 329.195 66.8635C290.634 33.7859 264.637 47.6222 219.355 125.325C181.776 189.805 152.909 211.687 106.314 210.984C47.4458 210.094 0 164.118 0 107.952C0 23.3759 83.5244 -25.5443 160.757 13.8069Z" fill="#393939"/>
</svg>
